<?xml version="1.0" encoding="utf-8"?>
<svg version="1.1" id="Layer_1" xmlns="http://www.w3.org/2000/svg" xmlns:xlink="http://www.w3.org/1999/xlink" x="0px" y="0px"
	 viewBox="0 0 67.5 78.2" style="enable-background:new 0 0 67.5 78.2;" xml:space="preserve">
<style type="text/css">
	.st0{fill:#fff;}
</style>
<path class="st0" d="M65.7,22.9c-4.9-13.6-22.5-10-22.5-10C32.4-6,11.8,1.4,11.8,1.4c15.5,3.7,20.5,14.4,20.5,14.4
C3.4,7.4,0,33.3,0,33.3c12.4-8.6,23.6-7.1,28.2-6L27,28.4c0,0-20.1,13-26.7,44.9c0,0,1.2,2.6,5.6,4.6c5.2,1.3,5-2.6,5-2.6
s8.8-33.9,20.9-44.7l0.9-1.1C41.9,37,38,57.9,38,57.9c18.1-10,6.4-35.4,6.4-35.4C62.5,25.8,64,45.1,64,45.1S70.6,36.5,65.7,22.9z"
/>
<path class="st0" d="M56.8,69.7c4.7,0,8.5-3.8,8.5-8.5s-8.5-13.7-8.5-19.6h-0.3c0,5.9-8.5,14.9-8.5,19.6c0,4.7,3.8,8.5,8.5,8.5
H56.8z"/>
</svg>
