<?xml version="1.0" encoding="utf-8"?>
<!-- Generator: Adobe Illustrator 19.2.1, SVG Export Plug-In . SVG Version: 6.00 Build 0)  -->
<svg version="1.1" id="callout_1" xmlns="http://www.w3.org/2000/svg" xmlns:xlink="http://www.w3.org/1999/xlink" x="0px" y="0px"
	 viewBox="0 0 548.5 342.9" style="enable-background:new 0 0 548.5 342.9;" xml:space="preserve">
<style type="text/css">
	.st0{fill:#FFFFFF;}
</style>
<path class="st0" d="M217.2,248.2l28.6-42.4h-57.1L217.2,248.2L217.2,248.2z M173.5,77.8l44,72.3l43.5-72L217.1,0L173.5,77.8
	L173.5,77.8z"/>
<path class="st0" d="M182.9,297.2h68.6v45.7h-68.6V297.2z"/>
<path class="st0" d="M102.9,0.1L0,182.9h51.4L0,274.4h205.7L154.3,183h51.4L102.9,0.1L102.9,0.1z"/>
<path class="st0" d="M68.6,297.2h68.6v45.7H68.6V297.2z"/>
<path class="st0" d="M445.7,0.1L402,77.8l77.9,128H417l30.1,68.6h101.4L497.1,183h51.4L445.7,0.1L445.7,0.1z"/>
<path class="st0" d="M411.4,297.2H480v45.7h-68.6V297.2z"/>
<path class="st0" d="M331.4,0.1L228.6,182.9H280l-51.4,91.4h205.7l-51.4-91.4h51.4L331.4,0.1L331.4,0.1z"/>
<path class="st0" d="M297.2,297.2h68.6v45.7h-68.6V297.2z"/>
</svg>
