<svg width="11" height="10" viewBox="0 0 11 10" xmlns="http://www.w3.org/2000/svg"><title>Group</title><g fill="none" fill-rule="evenodd"><circle fill="#E98300" cx="5.5" cy="5" r="5"/><path d="M5.512 8.67c-.312 0-.58.006-.804.018-.224.012-.44.026-.648.042a1.164 1.164 0 0 1-.024-.228c0-.056.014-.094.042-.114a.264.264 0 0 1 .09-.042c.256-.048.432-.1.528-.156a.284.284 0 0 0 .144-.264V4.758c0-.24-.04-.424-.12-.552-.08-.128-.268-.204-.564-.228C4.052 3.962 4 3.898 4 3.786v-.09c0-.036.008-.07.024-.102.048 0 .118-.002.21-.006l.294-.012c.104-.004.208-.01.312-.018l.288-.024c.2-.024.392-.056.576-.096.184-.04.308-.06.372-.06.128 0 .192.06.192.18 0 .088-.012.204-.036.348a3.859 3.859 0 0 0-.036.6v3.42c0 .12.052.208.156.264.104.056.276.108.516.156.088.016.132.068.132.156v.12c0 .04-.008.076-.024.108a16.052 16.052 0 0 0-1.464-.06zm-.876-7.044A.838.838 0 0 1 5.5.75c.256 0 .464.082.624.246.16.164.24.374.24.63s-.08.466-.24.63a.833.833 0 0 1-.624.246.838.838 0 0 1-.864-.876z" fill="#FFF"/></g></svg>