<svg id="callout_1" data-name="callout 1" xmlns="http://www.w3.org/2000/svg" width="103" height="103" viewBox="0 0 103 103"><defs><style>.cls-1,.cls-3{fill:#f79622}.cls-2{fill:#fff}.cls-2,.cls-3{fill-rule:evenodd}</style></defs><circle class="cls-1" cx="51.5" cy="51.5" r="49.5"/><path class="cls-2" d="M53.032 80.961l.03.039H26.089l5.9-7.378a29.493 29.493 0 1 1 21.043 7.339z"/><path class="cls-3" d="M50.383 36.324a3.167 3.167 0 0 0-1.3.359 7.97 7.97 0 0 0-1.415.215c-1.518.287-2.054 2.224-2.126 2.941s-.09 2.734-.042 3.81c.145.646-.361.646-.361.646-.909-.058-.5 2.755-.5 2.755.131.693-.047 1.038 1.3 1.575a5.55 5.55 0 0 0 2.274 2.729s.081 1.163.107 1.991c-.137-.068.439 2.117-3.745 2.73s-4.984 1.957-5.773 2.706-.729 4.205-.729 4.205H65.01s-.172-3.456-.96-4.205-1.648-2.094-5.831-2.706-3.442-2.738-3.471-2.867c.007-.327.154-1.71.154-1.71a7.334 7.334 0 0 0 1.989-2.927c1.009-.632 1.394-.721 1.561-1.45 0 0 .341-2.755-.744-2.755 0 0-.452.072-.307-.574a17.557 17.557 0 0 0 .024-3.379c-.072-.717.139-2.768-1.379-3.055a6.8 6.8 0 0 0-1.663.027c-.506-.072-1.108-1.373-2.048-1.373z"/></svg>