<svg id="callout_1" data-name="callout 1" xmlns="http://www.w3.org/2000/svg" width="103" height="103" viewBox="0 0 103 103">
  <defs>
    <style>
      .cls-1, .cls-3 {
        fill: #f79622;
      }

      .cls-2 {
        fill: #fff;
      }

      .cls-2, .cls-3 {
        fill-rule: evenodd;
      }
    </style>
  </defs>
  <circle class="cls-1" cx="51.5" cy="51.5" r="49.5"/>
  <path class="cls-2" d="M53.032,80.961L53.062,81H51.57L51.5,81l-0.07,0H26.089l5.9-7.378A29.493,29.493,0,1,1,53.032,80.961Z"/>
  <path class="cls-3" d="M50.383,36.324a3.167,3.167,0,0,0-1.3.359,7.97,7.97,0,0,0-1.415.215c-1.518.287-2.054,2.224-2.126,2.941s-0.09,2.734-.042,3.81c0.145,0.646-.361.646-0.361,0.646-0.909-.058-0.5,2.755-0.5,2.755,0.131,0.693-.047,1.038,1.3,1.575a5.55,5.55,0,0,0,2.274,2.729s0.081,1.163.107,1.991c-0.137-.068.439,2.117-3.745,2.73s-4.984,1.957-5.773,2.706-0.729,4.205-.729,4.205H65.01s-0.172-3.456-.96-4.205-1.648-2.094-5.831-2.706-3.442-2.738-3.471-2.867c0.007-.327.154-1.71,0.154-1.71a7.334,7.334,0,0,0,1.989-2.927c1.009-.632,1.394-0.721,1.561-1.45,0,0,.341-2.755-0.744-2.755,0,0-.452.072-0.307-0.574a17.557,17.557,0,0,0,.024-3.379c-0.072-.717.139-2.768-1.379-3.055a6.8,6.8,0,0,0-1.663.027c-0.506-.072-1.108-1.373-2.048-1.373Z"/>
</svg>
