<svg id="callout_1" xmlns="http://www.w3.org/2000/svg" viewBox="0 0 548.5 342.9"><style>.st0{fill:#fff}</style><path class="st0" d="M217.2 248.2l28.6-42.4h-57.1l28.5 42.4zM173.5 77.8l44 72.3 43.5-72L217.1 0l-43.6 77.8zM182.9 297.2h68.6v45.7h-68.6v-45.7z"/><path class="st0" d="M102.9.1L0 182.9h51.4L0 274.4h205.7L154.3 183h51.4L102.9.1zM68.6 297.2h68.6v45.7H68.6v-45.7zM445.7.1L402 77.8l77.9 128H417l30.1 68.6h101.4L497.1 183h51.4L445.7.1zM411.4 297.2H480v45.7h-68.6v-45.7z"/><path class="st0" d="M331.4.1L228.6 182.9H280l-51.4 91.4h205.7l-51.4-91.4h51.4L331.4.1zM297.2 297.2h68.6v45.7h-68.6v-45.7z"/></svg>