<svg id="callout_2" data-name="callout 2" xmlns="http://www.w3.org/2000/svg" width="104" height="104" viewBox="0 0 104 104"><defs><style>.cls-1,.cls-3{fill:#f79622}.cls-2{fill:#fff}.cls-3{fill-rule:evenodd}</style></defs><circle id="Ellipse_4_copy" data-name="Ellipse 4 copy" class="cls-1" cx="52" cy="52" r="50"/><circle class="cls-2" cx="52.5" cy="52.5" r="29.5"/><path id="Rectangle_4_copy_5" data-name="Rectangle 4 copy 5" class="cls-3" d="M64.031 54l-1.7.367-.08-.367H62v-1.149l-2.45-11.208-3.691 30.945-.777-.088.018.115-2.432.395-3.208-24.1-3.3 13.982-.375-.08.063.429-2.465.349-2.754-18.811-1.745 5.1L38 49.58V50H20v-2h16.93l2.361-6.894.841.28-.015-.1 2.465-.349 2.355 16.081 3.171-11.862L49 45h2l.874 1.4 2.334 19.267 3.739-31.353-.116-.529.184-.04.2-1.7 2.442.287-.222 1.865L64.331 52H86v2H64.031z"/></svg>